<svg width="176" height="84" viewBox="0 0 176 84" fill="none" xmlns="http://www.w3.org/2000/svg">
<path d="M48.8369 37.082V67H38.7119V28.9609H48.2041L48.8369 37.082ZM47.3604 46.6445H44.6182C44.6182 43.832 44.9814 41.3008 45.708 39.0508C46.4346 36.7773 47.4541 34.8438 48.7666 33.25C50.0791 31.6328 51.6377 30.4023 53.4424 29.5586C55.2705 28.6914 57.3096 28.2578 59.5596 28.2578C61.3408 28.2578 62.9697 28.5156 64.4463 29.0312C65.9229 29.5469 67.1885 30.3672 68.2432 31.4922C69.3213 32.6172 70.1416 34.1055 70.7041 35.957C71.29 37.8086 71.583 40.0703 71.583 42.7422V67H61.3877V42.707C61.3877 41.0195 61.1533 39.707 60.6846 38.7695C60.2158 37.832 59.5244 37.1758 58.6104 36.8008C57.7197 36.4023 56.6182 36.2031 55.3057 36.2031C53.9463 36.2031 52.7627 36.4727 51.7549 37.0117C50.7705 37.5508 49.9502 38.3008 49.2939 39.2617C48.6611 40.1992 48.1807 41.3008 47.8525 42.5664C47.5244 43.832 47.3604 45.1914 47.3604 46.6445ZM91.9385 67H81.7783V27.2383C81.7783 24.0039 82.4346 21.2734 83.7471 19.0469C85.083 16.8203 86.9814 15.1328 89.4424 13.9844C91.9268 12.8359 94.9268 12.2617 98.4424 12.2617C100.435 12.2617 102.368 12.4609 104.243 12.8594C106.118 13.2344 108.052 13.7266 110.044 14.3359L108.567 22.457C107.278 22.0586 105.896 21.6836 104.419 21.332C102.942 20.9805 101.161 20.8047 99.0752 20.8047C96.7314 20.8047 94.9502 21.3555 93.7314 22.457C92.5361 23.5352 91.9385 25.1289 91.9385 27.2383V67ZM99.4971 28.9609V36.1328H76.1182V28.9609H99.4971ZM114.755 28.9609V67H104.595V28.9609H114.755ZM133.142 37.082V67H123.017V28.9609H132.509L133.142 37.082ZM131.665 46.6445H128.923C128.923 43.832 129.286 41.3008 130.013 39.0508C130.739 36.7773 131.759 34.8438 133.071 33.25C134.384 31.6328 135.942 30.4023 137.747 29.5586C139.575 28.6914 141.614 28.2578 143.864 28.2578C145.646 28.2578 147.274 28.5156 148.751 29.0312C150.228 29.5469 151.493 30.3672 152.548 31.4922C153.626 32.6172 154.446 34.1055 155.009 35.957C155.595 37.8086 155.888 40.0703 155.888 42.7422V67H145.692V42.707C145.692 41.0195 145.458 39.707 144.989 38.7695C144.521 37.832 143.829 37.1758 142.915 36.8008C142.024 36.4023 140.923 36.2031 139.61 36.2031C138.251 36.2031 137.067 36.4727 136.06 37.0117C135.075 37.5508 134.255 38.3008 133.599 39.2617C132.966 40.1992 132.485 41.3008 132.157 42.5664C131.829 43.832 131.665 45.1914 131.665 46.6445Z" fill="black"/>
<path d="M24.0857 67.4228L24.6593 31.8804L33.0968 31.8489L34.8786 67.3826L24.0857 67.4228ZM34.3917 20.841C34.4165 22.3408 33.9214 23.5848 32.9064 24.5728C31.8683 25.5844 30.4938 26.0934 28.7829 26.0998C27.0486 26.1063 25.6574 25.6076 24.6096 24.6037C23.5621 23.6233 23.026 22.3832 23.0012 20.8835C22.9772 19.4305 23.4725 18.1983 24.4871 17.1868C25.5018 16.1753 26.8762 15.6663 28.6106 15.6598C30.3215 15.6535 31.7127 16.1521 32.784 17.1559C33.8318 18.1597 34.3678 19.3881 34.3917 20.841Z" fill="black"/>
<path d="M160.086 66.7836L160.659 31.2412L169.097 31.2098L170.879 66.7434L160.086 66.7836ZM170.392 20.2019C170.416 21.7016 169.921 22.9456 168.906 23.9337C167.868 24.9453 166.494 25.4543 164.783 25.4606C163.049 25.4671 161.657 24.9684 160.61 23.9646C159.562 22.9842 159.026 21.7441 159.001 20.2443C158.977 18.7913 159.473 17.5591 160.487 16.5476C161.502 15.5361 162.876 15.0271 164.611 15.0206C166.322 15.0143 167.713 15.513 168.784 16.5167C169.832 17.5205 170.368 18.7489 170.392 20.2019Z" fill="black"/>
</svg>
