<svg width="220" height="220" viewBox="0 0 220 220" fill="none" xmlns="http://www.w3.org/2000/svg">
<rect x="0.5" y="0.5" width="219" height="219" rx="9.5" fill="#FCD469" stroke="black"/>
<path d="M93.5664 173.188L97.2773 75.2383H122.375L126.086 173.188H93.5664ZM126.965 44.8672C126.965 49.2292 125.402 52.9076 122.277 55.9023C119.152 58.8971 115.018 60.3945 109.875 60.3945C104.797 60.3945 100.728 58.8971 97.668 55.9023C94.543 52.9076 92.9805 49.2292 92.9805 44.8672C92.9805 40.4401 94.543 36.7292 97.668 33.7344C100.728 30.8047 104.797 29.3398 109.875 29.3398C115.018 29.3398 119.152 30.8047 122.277 33.7344C125.402 36.7292 126.965 40.4401 126.965 44.8672Z" fill="#140572"/>
</svg>
